<?xml version="1.0" standalone="no"?>
<!DOCTYPE svg PUBLIC "-//W3C//DTD SVG 20010904//EN" "http://www.w3.org/TR/2001/REC-SVG-20010904/DTD/svg10.dtd">
<svg version="1.0" xmlns="http://www.w3.org/2000/svg" width="952.000000pt" height="1280.000000pt" viewBox="0 0 952.000000 1280.000000" preserveAspectRatio="xMidYMid meet">
    <metadata>
Created by potrace 1.15, written by Peter Selinger 2001-2017
</metadata>
    <g transform="translate(0.000000,1280.000000) scale(0.100000,-0.100000)" fill="#fff" stroke="none">
        <path d="M4336 12785 c-316 -80 -623 -513 -740 -1045 -90 -412 -96 -845 -16
-1159 21 -83 26 -166 11 -175 -15 -10 -56 30 -83 81 -15 26 -43 104 -63 171
-46 155 -65 200 -105 246 -55 62 -110 42 -140 -50 -9 -27 -8 -45 5 -91 23 -79
43 -115 121 -219 36 -49 78 -113 91 -142 32 -68 26 -98 -25 -119 -32 -14 -51
-14 -148 -3 -148 17 -210 10 -301 -35 -398 -197 -652 -979 -547 -1685 8 -58
31 -177 49 -265 19 -88 32 -162 29 -164 -2 -3 -167 1 -367 8 -860 29 -1236 61
-1369 117 -221 93 -453 64 -612 -77 -70 -62 -126 -136 -126 -167 0 -52 192
-200 311 -241 100 -33 152 -28 448 44 417 101 597 120 1161 120 335 0 423 -3
510 -17 340 -55 471 -163 539 -444 43 -174 156 -337 369 -528 192 -173 292
-284 292 -327 0 -41 -98 -62 -355 -78 -152 -10 -229 -28 -252 -58 -26 -34 25
-75 105 -86 77 -10 108 -56 122 -177 12 -106 62 -253 159 -462 119 -260 126
-288 125 -493 -1 -271 -50 -528 -117 -617 -31 -42 -73 -67 -206 -126 -57 -26
-121 -77 -121 -97 0 -31 -130 -59 -345 -74 -160 -11 -239 -32 -334 -88 -123
-73 -230 -171 -873 -794 l-233 -225 -235 12 c-712 37 -933 -3 -981 -179 -15
-58 2 -142 38 -179 52 -54 109 -63 383 -61 135 0 327 8 428 16 168 13 187 17
245 45 130 65 234 157 662 587 421 422 555 549 617 581 43 23 195 30 296 14
108 -17 253 -66 294 -100 24 -20 37 -41 41 -64 8 -49 34 -84 79 -107 21 -11
38 -26 38 -33 0 -40 -159 -133 -323 -188 -69 -23 -116 -32 -187 -35 -113 -5
-145 -16 -159 -51 -5 -15 -12 -92 -14 -172 -6 -203 -63 -470 -177 -840 -167
-543 -210 -720 -220 -915 -10 -171 -35 -275 -155 -630 -126 -374 -165 -529
-165 -654 0 -156 63 -75 160 204 134 389 254 921 266 1180 7 132 18 195 37
195 7 0 34 -23 60 -52 55 -60 53 -65 23 77 -18 82 -20 152 -6 250 14 96 72
299 81 283 4 -7 26 -87 50 -177 23 -91 45 -159 47 -153 2 7 -1 57 -7 113 -22
197 -7 403 44 616 54 227 122 323 172 246 26 -40 21 -102 -15 -180 -39 -86
-61 -210 -69 -388 -6 -139 8 -299 28 -337 15 -27 37 -22 55 14 22 43 30 186
14 263 -36 180 -35 193 13 169 78 -41 243 39 292 142 14 31 15 42 4 85 -16 61
-6 83 39 87 47 5 76 -29 67 -76 -25 -136 -213 -700 -341 -1025 -61 -154 -90
-216 -128 -272 -43 -63 -107 -243 -156 -437 l-47 -187 -6 97 c-4 53 -7 158 -7
232 -1 220 -25 420 -50 420 -38 0 -59 -165 -70 -550 -15 -547 -35 -769 -85
-976 -39 -155 -29 -179 46 -122 35 26 56 56 100 145 76 150 128 295 253 703
148 484 379 1160 396 1160 3 0 21 -179 40 -398 26 -296 35 -448 34 -597 0
-241 -13 -302 -105 -524 -107 -255 -139 -374 -106 -387 21 -8 93 31 112 60 31
46 81 54 203 30 30 -6 33 -4 47 30 22 51 19 197 -10 571 -40 518 -46 699 -55
1520 -9 909 -12 935 -95 1040 -50 63 -52 70 -16 49 100 -59 154 -149 190 -314
30 -145 36 -197 111 -1065 39 -445 79 -900 90 -1010 35 -351 88 -717 114 -793
29 -84 74 -30 88 108 12 120 30 175 112 345 41 83 113 240 161 350 173 398
317 675 410 789 115 142 228 353 344 642 116 291 155 342 276 365 83 15 309 7
357 -14 94 -40 171 -145 363 -497 151 -275 266 -505 299 -598 59 -167 67 -232
76 -687 10 -507 28 -710 64 -760 13 -18 14 -18 24 1 35 65 51 311 62 964 9
506 19 677 45 795 4 17 29 75 56 130 77 157 114 324 164 744 13 112 27 206 30
210 4 3 5 -250 2 -564 -5 -679 -9 -726 -143 -1670 -31 -214 -57 -432 -57 -483
-2 -91 -1 -94 26 -118 20 -17 40 -24 68 -24 52 0 83 30 103 101 19 67 35 297
37 534 1 99 4 212 8 250 6 69 7 66 40 -159 71 -487 117 -628 226 -692 39 -22
62 -28 138 -32 157 -8 198 25 158 126 -38 96 -25 96 99 -5 134 -107 210 -140
210 -89 0 63 -88 295 -258 682 -144 327 -214 499 -247 609 -15 50 -69 194
-120 320 -143 356 -166 442 -144 558 11 60 75 217 89 217 4 0 10 -39 13 -87 8
-114 47 -198 113 -243 123 -85 376 -581 714 -1400 177 -429 227 -537 302 -647
32 -47 51 -52 98 -28 86 45 79 196 -15 310 l-25 30 0 -30 c0 -16 9 -64 20
-105 11 -41 20 -88 20 -105 l0 -30 -24 30 c-42 51 -76 128 -76 171 0 50 35
121 98 199 82 102 98 91 201 -134 81 -179 134 -264 159 -259 49 9 15 157 -137
585 -72 205 -94 301 -88 393 2 43 -1 102 -9 138 -30 144 -196 597 -329 897
-125 282 -211 435 -246 435 -25 0 -49 54 -49 112 0 188 -102 392 -278 560 -64
60 -113 96 -173 127 -98 51 -124 72 -151 125 -34 66 -46 178 -59 516 l-11 324
21 17 c51 41 328 75 556 67 222 -7 251 -30 536 -410 98 -131 226 -308 285
-393 154 -224 201 -258 325 -234 95 19 201 6 342 -42 120 -40 124 -41 232 -36
122 5 192 25 264 77 99 72 127 184 66 272 -17 23 -57 61 -91 83 -85 58 -160
80 -269 80 -82 0 -97 -3 -170 -36 -109 -49 -171 -62 -266 -57 -68 4 -91 11
-166 48 -75 37 -103 59 -203 159 -68 69 -167 184 -240 281 -137 182 -292 345
-385 405 -135 88 -274 122 -540 131 -253 8 -345 35 -345 101 0 13 -6 38 -14
57 -12 30 -26 43 -95 95 -25 18 -25 18 -8 62 9 24 42 76 72 114 187 237 262
359 305 500 48 158 72 200 130 230 16 8 78 19 139 24 122 11 179 33 199 75 21
47 -11 91 -119 159 -31 19 -60 40 -64 47 -9 15 18 44 70 74 66 39 111 96 134
171 46 147 14 278 -78 324 -55 28 -74 78 -69 178 3 58 10 93 30 135 30 64 57
82 139 93 187 24 345 336 325 645 -10 157 -49 269 -124 352 -67 75 -248 178
-312 178 -12 0 -30 15 -44 38 -39 60 -59 153 -59 277 0 127 15 175 61 199 59
31 93 189 72 343 -13 103 -34 151 -74 173 -50 27 -66 59 -75 148 -5 48 -16 92
-26 108 -51 78 -198 90 -615 49 -154 -16 -282 -27 -284 -24 -2 2 5 83 15 179
31 300 23 486 -23 532 -20 20 -29 20 -237 15 -331 -9 -583 -53 -652 -115 -27
-24 -32 -37 -39 -97 -9 -81 -22 -117 -56 -162 -32 -42 -43 -72 -54 -150 -17
-122 -75 -154 -420 -228 -141 -30 -190 -48 -190 -68 0 -7 32 -29 72 -48 39
-19 72 -38 72 -44 1 -5 -15 -12 -34 -16 -51 -11 -63 -32 -43 -80 24 -60 16
-67 -69 -62 -56 4 -78 1 -93 -11 -20 -16 -20 -16 11 -43 17 -16 48 -41 68 -56
52 -40 48 -64 -25 -131 -33 -31 -64 -56 -69 -56 -5 0 0 20 11 45 23 52 18 82
-16 91 -64 16 -93 -48 -75 -167 21 -137 3 -189 -85 -237 -71 -40 -76 -53 -37
-104 18 -24 44 -67 58 -97 32 -64 29 -122 -10 -216 -25 -61 -51 -150 -61 -217
-8 -49 -33 -78 -75 -87 -45 -9 -52 -38 -40 -156 24 -234 107 -561 256 -1018
107 -327 115 -423 40 -472 -29 -19 -94 -30 -128 -22 -58 15 -160 151 -204 273
-27 74 -30 112 -11 138 13 18 15 17 35 -11 12 -17 32 -64 46 -106 41 -125 77
-181 140 -214 30 -16 78 -12 103 8 23 19 15 56 -57 268 -157 465 -357 1203
-368 1357 -6 90 23 207 123 509 126 381 268 721 351 846 39 57 44 71 34 84
-32 39 -117 -7 -190 -102 -68 -89 -197 -354 -255 -523 -89 -258 -130 -452
-144 -674 -9 -154 -26 -200 -82 -228 -19 -10 -56 -18 -86 -18 -28 0 -54 -4
-57 -8 -3 -5 27 -17 67 -27 123 -32 150 -83 111 -214 -8 -29 -14 -62 -12 -74
3 -18 11 -12 52 41 65 83 76 81 76 -10 0 -74 -27 -158 -50 -158 -5 0 -10 -3
-10 -7 0 -5 25 -6 55 -5 64 4 85 -8 85 -48 0 -31 -39 -70 -71 -70 -48 0 -30
-97 47 -257 40 -83 68 -126 109 -168 30 -31 55 -61 55 -66 0 -14 -47 -22 -101
-17 -70 7 -97 36 -121 129 -23 93 -99 265 -204 459 -45 86 -98 191 -116 235
-32 78 -33 84 -33 220 0 113 6 167 29 280 70 351 196 686 376 1000 84 147 130
246 130 279 0 30 -25 46 -74 46 -19 0 -37 4 -41 9 -8 15 52 55 135 91 374 162
599 476 694 966 41 215 49 350 43 711 -7 407 -26 568 -93 756 -74 207 -232
383 -403 448 -73 27 -196 34 -275 14z m249 -229 c86 -36 185 -164 280 -361
167 -345 206 -802 109 -1267 -62 -295 -198 -584 -338 -717 -147 -138 -348
-160 -540 -58 -72 38 -192 149 -252 232 -60 85 -138 253 -163 350 -65 259 -50
626 40 950 103 374 269 663 450 784 122 81 325 124 414 87z m1679 -2071 c61
-29 76 -73 76 -225 0 -201 -26 -234 -208 -260 -112 -17 -389 -8 -458 14 -60
19 -104 50 -104 75 0 25 36 56 100 85 94 44 163 32 227 -41 35 -39 45 -45 53
-33 5 8 10 27 10 42 0 56 68 85 226 96 l109 7 -65 24 c-125 45 -205 87 -237
125 -18 20 -33 43 -33 50 0 16 28 42 60 55 39 17 199 7 244 -14z m-394 -14
c22 -43 5 -109 -36 -136 -40 -26 -108 -36 -180 -26 -37 6 -72 15 -78 21 -16
17 52 71 149 120 89 44 129 50 145 21z m-2206 -244 c38 -50 50 -88 33 -105
-11 -11 -19 -11 -35 -3 -24 13 -82 124 -82 158 l0 24 30 -21 c17 -12 41 -36
54 -53z m-83 -207 c58 -85 112 -134 141 -128 27 6 4 -261 -31 -355 -23 -59
-36 -32 -76 163 -28 133 -61 258 -95 354 -11 33 -20 61 -20 63 0 14 27 -19 81
-97z m-376 45 c122 -32 216 -121 285 -270 49 -104 64 -170 58 -260 -8 -126
-77 -209 -185 -222 -75 -8 -137 11 -263 82 -141 79 -174 86 -235 50 -118 -69
-217 -311 -219 -535 -1 -135 14 -169 127 -289 117 -123 141 -167 140 -250 -2
-110 -73 -321 -109 -321 -21 0 -118 93 -153 149 -38 60 -85 200 -107 326 -26
143 -26 559 0 730 24 158 76 360 119 461 81 192 197 305 360 349 69 18 110 18
182 0z m2848 -234 c22 -37 52 -164 74 -316 25 -174 25 -578 0 -652 -36 -108
-41 -193 -41 -763 -1 -305 1 -798 4 -1095 4 -423 2 -546 -8 -569 -10 -22 -15
-26 -26 -17 -33 27 -55 108 -66 237 -41 514 -34 2669 10 3093 13 123 21 135
53 82z m1192 -21 c15 -29 20 -105 9 -134 -10 -25 -33 -19 -45 12 -15 38 -3
152 16 152 3 0 11 -13 20 -30z m-2075 -458 c15 -575 13 -3102 -2 -3102 -263 3
-1402 134 -1553 179 l-30 8 37 8 c44 8 353 -8 688 -35 246 -21 300 -27 543
-61 82 -12 164 -18 183 -14 51 9 68 42 67 134 -1 128 -24 144 -158 111 -102
-25 -125 -25 -125 -1 0 45 88 110 151 111 98 1 113 179 129 1490 18 1533 47
2018 70 1172z m2004 71 c76 -237 129 -934 57 -755 -63 156 -128 802 -81 802 5
0 15 -21 24 -47z m-3199 -22 c7 -13 -17 -25 -133 -67 -227 -82 -397 -201 -494
-344 -70 -104 -161 -280 -217 -420 -46 -115 -80 -181 -97 -187 -7 -2 -14 14
-18 38 -12 75 -70 170 -172 281 -87 94 -134 191 -134 274 0 34 4 65 10 69 5 3
30 -26 55 -64 51 -78 80 -101 136 -108 33 -5 42 -1 69 25 24 25 30 39 30 76 0
51 -19 65 -64 45 -23 -11 -31 -10 -54 8 -68 50 -126 238 -89 288 23 30 128 27
193 -6 98 -48 107 -126 60 -503 -15 -115 -25 -210 -24 -212 2 -1 32 61 68 139
36 78 91 181 123 229 135 204 338 372 517 429 60 19 225 26 235 10z m3425 -31
c21 -40 24 -108 5 -136 -17 -26 -18 -27 -31 -9 -14 19 -19 120 -8 149 8 22 21
20 34 -4z m-461 -641 c79 -12 126 -31 140 -58 10 -17 7 -23 -14 -37 -20 -13
-64 -18 -208 -24 -313 -14 -431 -60 -498 -196 -58 -117 -50 -282 26 -560 19
-68 48 -150 65 -183 16 -33 30 -67 30 -76 0 -27 -37 -16 -70 21 -60 69 -109
220 -139 432 -18 127 -49 657 -39 668 3 2 106 11 229 18 225 14 359 13 478 -5z
m-1525 -192 c28 -43 40 -149 39 -357 0 -279 -36 -502 -101 -630 -31 -62 -57
-75 -72 -35 -20 52 -6 606 21 845 12 110 25 166 45 198 12 18 18 20 34 12 11
-6 26 -21 34 -33z m1219 -37 c37 -30 51 -108 44 -250 -10 -191 -54 -366 -98
-393 -46 -28 -121 35 -140 118 -10 47 -9 72 11 195 18 113 21 146 11 166 -8
18 -17 24 -27 20 -9 -3 -27 -9 -41 -12 -23 -6 -24 -5 -15 13 20 36 142 142
175 152 47 14 52 13 80 -9z m911 5 c37 -8 82 -23 99 -33 85 -49 131 -207 150
-510 7 -112 10 -205 7 -207 -3 -2 -104 -8 -225 -15 -279 -16 -437 -3 -452 36
-3 8 7 39 21 69 57 115 214 213 386 240 217 34 246 64 180 181 -69 119 -176
178 -325 179 -79 0 -97 -3 -147 -28 -89 -44 -134 -108 -169 -244 -13 -51 -19
-110 -19 -179 0 -232 62 -350 203 -385 69 -17 186 -15 270 5 38 9 83 16 100
16 l32 -1 -40 -36 c-55 -50 -178 -129 -221 -143 -85 -28 -168 15 -324 170
-146 144 -168 208 -135 391 15 80 16 101 5 114 -18 21 -27 19 -57 -12 -24 -26
-93 -160 -93 -182 0 -5 -5 -22 -12 -38 l-11 -28 -7 37 c-8 46 3 208 20 267 15
55 67 111 104 111 60 0 116 57 116 118 0 42 75 84 190 107 89 18 270 18 354 0z
m-4018 -418 c12 -14 25 -46 28 -71 12 -77 -11 -216 -34 -216 -12 0 -50 50 -50
65 0 25 -52 63 -108 78 -31 8 -106 18 -167 22 -148 9 -207 36 -161 74 24 20
120 48 206 60 47 6 96 13 110 15 14 3 54 3 90 1 54 -3 68 -7 86 -28z m-452
-379 c20 -47 46 -211 46 -285 0 -82 -21 -85 -56 -9 -31 69 -48 194 -34 266 5
29 10 54 10 56 0 2 5 4 11 4 5 0 16 -15 23 -32z m3259 -77 c113 -81 156 -94
371 -111 71 -6 146 -15 167 -20 90 -25 119 -93 49 -117 -49 -17 -178 -16 -338
3 -335 38 -392 70 -392 219 0 60 12 95 33 95 7 0 57 -31 110 -69z m-2366 -113
c28 -32 34 -66 18 -104 -16 -39 -41 -54 -92 -54 -46 0 -103 42 -123 90 -11 27
-11 34 4 48 24 24 74 40 127 41 35 1 50 -4 66 -21z m3259 -119 c9 -17 21 -77
27 -132 18 -168 -16 -554 -51 -589 -38 -38 -61 89 -69 364 -4 152 -2 236 6
280 21 106 56 137 87 77z m-799 -569 c23 -34 50 -85 59 -113 16 -48 16 -51 -2
-64 -27 -19 -82 -33 -137 -33 -105 0 -160 53 -155 149 2 30 8 56 14 58 6 2 35
-26 63 -62 29 -36 56 -63 60 -61 5 3 11 45 15 93 4 48 10 91 13 96 10 16 28 0
70 -63z m-2992 -516 c20 -8 45 -56 45 -87 0 -45 61 -231 152 -462 50 -126 93
-233 97 -237 7 -8 146 164 215 267 26 39 66 108 88 153 23 46 52 91 66 100 69
45 156 -8 150 -91 -3 -35 -7 -43 -26 -45 -13 -2 -38 2 -54 9 -28 11 -33 11
-49 -10 -26 -32 -24 -86 2 -112 20 -20 28 -21 103 -14 121 12 148 9 168 -16
24 -28 23 -52 -3 -75 -19 -17 -38 -19 -173 -19 -145 0 -153 -1 -202 -27 -77
-40 -114 -88 -114 -145 0 -42 4 -51 44 -88 46 -45 200 -125 322 -168 92 -33
164 -67 164 -78 0 -15 -49 -22 -106 -15 -223 26 -581 274 -744 515 -60 90
-143 260 -179 366 -70 210 -57 314 34 279z m3335 -11 c84 -7 84 -7 35 -14 -68
-10 -986 -11 -1066 -1 l-64 7 60 6 c89 8 936 10 1035 2z m-1596 -159 c47 -18
40 -144 -16 -304 -53 -149 -117 -263 -220 -388 -33 -40 -58 -75 -56 -77 7 -8
172 132 210 177 65 80 134 194 178 294 73 170 131 254 176 254 54 0 59 -90 11
-200 -63 -144 -217 -383 -319 -495 -53 -58 -138 -105 -202 -112 -64 -8 -86 17
-86 97 0 80 25 151 120 345 83 171 123 272 135 345 10 65 27 80 69 64z m1147
-55 c18 -18 21 -30 17 -89 -3 -56 -11 -84 -46 -152 -84 -166 -271 -380 -411
-471 -81 -53 -259 -136 -307 -144 -34 -6 -36 -5 -25 15 6 11 48 54 93 94 267
237 366 364 417 530 25 84 42 118 84 165 64 73 136 94 178 52z m-1583 -3 c76
-39 71 -177 -7 -204 -47 -17 -54 -62 -47 -302 18 -578 18 -628 8 -646 -10 -17
-12 -15 -27 19 -8 20 -19 85 -24 145 -13 157 -35 209 -133 305 -44 43 -78 84
-75 90 2 7 15 13 30 15 31 4 63 40 77 91 6 20 15 108 20 196 11 185 22 244 55
279 28 30 79 35 123 12z m2194 -113 c-15 -98 -76 -225 -166 -344 -55 -73 -346
-363 -346 -345 0 3 44 63 98 133 190 247 274 390 292 497 12 75 37 125 74 147
27 16 32 17 45 4 12 -12 13 -26 3 -92z m-1193 -844 c116 -18 148 -53 139 -149
-6 -64 -34 -94 -102 -112 -68 -17 -571 -18 -673 0 -143 24 -183 52 -129 87 20
13 32 14 63 6 86 -24 264 -8 588 53 l180 33 -425 6 c-401 5 -505 12 -550 37
-22 13 30 30 120 39 113 12 715 12 789 0z m591 1 c47 -6 104 -20 127 -31 65
-31 74 -64 83 -319 10 -281 28 -335 130 -385 101 -50 140 -112 140 -222 0
-116 -67 -221 -172 -270 -91 -44 -332 -74 -572 -72 -152 1 -437 14 -381 17 17
1 144 11 284 22 411 32 561 62 619 120 28 28 30 35 34 124 2 80 7 99 26 126
13 17 21 34 18 37 -17 17 -282 24 -726 21 -489 -4 -524 1 -177 22 302 18 533
53 612 91 77 37 119 141 119 294 0 80 -4 109 -21 147 -23 51 -35 59 -108 77
-57 14 -103 40 -157 89 -45 40 -82 98 -73 112 8 13 88 13 195 0z m-2348 -74
c42 -20 94 -52 114 -71 33 -31 36 -39 31 -72 -8 -44 5 -63 43 -63 42 0 76 33
84 80 4 27 14 45 31 56 38 25 51 9 81 -106 21 -80 48 -441 34 -450 -6 -4 -93
-17 -193 -29 -413 -50 -519 -77 -551 -140 -16 -30 -23 -162 -10 -195 10 -26
22 -10 69 91 24 52 48 92 53 89 5 -3 12 -47 15 -98 7 -103 20 -131 78 -161 29
-15 54 -17 169 -15 182 5 208 19 225 121 5 34 12 41 53 60 43 20 67 22 297 25
350 5 1227 -28 1263 -47 8 -4 -21 -29 -80 -68 -192 -127 -306 -174 -513 -210
-142 -25 -720 -25 -945 0 -619 69 -852 104 -925 136 -63 28 -79 58 -79 150 1
129 43 175 194 211 196 47 228 64 250 136 7 22 15 150 19 299 7 250 12 291 35
308 20 14 80 0 158 -37z m2089 -104 c30 -110 30 -301 0 -393 -22 -69 -47 -100
-96 -119 -50 -20 -201 -23 -610 -14 -451 10 -435 13 183 43 216 10 395 20 397
22 2 3 13 126 25 274 20 256 26 308 38 329 8 15 42 -60 63 -142z m1192 -64
c40 -23 86 -82 73 -96 -13 -13 -276 91 -276 109 0 27 146 18 203 -13z m-1580
-134 c26 -5 34 -10 25 -15 -18 -12 -569 -11 -587 0 -10 6 3 11 40 15 30 3 70
8 89 10 49 6 387 -2 433 -10z m-2078 -149 c-7 -51 -52 -133 -86 -157 -14 -11
-46 -22 -70 -25 l-44 -5 51 45 c55 50 102 129 130 222 l19 60 3 -50 c2 -27 1
-68 -3 -90z m1165 -93 c58 -30 97 -85 85 -122 -10 -32 -63 -54 -130 -54 -113
1 -186 69 -155 145 27 63 113 77 200 31z m-1677 -273 c53 -14 46 -26 -19 -35
-59 -7 -211 0 -221 10 -28 28 160 48 240 25z m6175 -300 c49 -24 73 -62 53
-82 -8 -8 -44 -12 -99 -12 -97 0 -154 22 -160 62 -8 53 120 73 206 32z m-5693
-69 c96 -24 180 -70 180 -96 0 -18 -9 -19 -140 -19 -123 1 -146 4 -190 23 -78
35 -94 80 -37 101 43 15 103 12 187 -9z m3119 -66 c9 -8 16 -18 16 -20 0 -26
-75 -114 -97 -114 -29 0 -43 72 -22 111 19 37 77 49 103 23z m-1047 -84 c218
-18 284 -45 181 -74 -86 -24 -288 -36 -621 -36 -405 0 -784 24 -959 62 -95 20
-50 36 131 48 183 11 1123 11 1268 0z m1338 -119 c-33 -30 -194 -136 -238
-156 -176 -81 -576 -99 -2097 -92 -1077 4 -1122 6 -1265 48 -60 18 -77 29
-132 85 -62 63 -75 88 -50 96 12 5 96 -7 262 -36 238 -41 921 -60 1915 -53
1025 7 1262 20 1476 81 135 38 142 39 129 27z m-4291 -141 c48 -43 86 -162 63
-195 -12 -16 -16 -16 -43 -2 -30 16 -79 64 -107 107 -25 36 -22 85 5 104 31
22 42 20 82 -14z m4432 -155 c32 -24 71 -110 62 -137 -2 -6 -30 21 -62 61 -39
48 -62 69 -68 63 -6 -6 -14 -41 -18 -79 -8 -73 -29 -118 -61 -128 -46 -15 -79
23 -79 91 0 49 22 95 59 127 45 37 120 38 167 2z m-2426 -55 c338 -5 864 -12
1169 -16 l553 -7 -6 -111 c-18 -285 -52 -376 -142 -376 -43 0 -43 0 -219 124
-125 89 -330 103 -1245 87 -848 -15 -1017 -28 -1137 -87 -48 -23 -129 -102
-235 -228 l-25 -29 -5 139 c-13 320 26 432 168 489 66 26 159 34 339 29 94 -2
447 -9 785 -14z m-1542 -85 c2 -19 -5 -41 -20 -61 -29 -39 -85 -87 -97 -82
-14 5 24 104 55 145 31 41 58 40 62 -2z m-2660 -31 c82 -57 18 -124 -121 -124
-132 0 -156 63 -47 121 44 23 137 25 168 3z m754 -29 c51 -35 66 -64 42 -82
-10 -7 -35 -13 -56 -13 -49 0 -78 28 -78 74 0 52 35 60 92 21z m5582 -106 c32
-15 60 -82 51 -125 -14 -78 -83 -110 -124 -59 -40 52 -39 123 4 169 27 29 34
31 69 15z m196 -24 c40 -21 65 -89 55 -152 -4 -27 -8 -74 -9 -107 -1 -63 -1
-63 63 -87 64 -24 78 -117 24 -159 -31 -24 -110 -27 -151 -6 -73 39 -112 122
-91 199 6 23 19 51 29 62 43 49 56 112 35 181 -26 86 -16 101 45 69z m-4102
-25 c25 -48 -12 -162 -63 -196 -88 -58 -113 103 -30 192 39 41 72 43 93 4z
m1083 -111 c25 -25 22 -52 -18 -169 -49 -144 -346 -822 -389 -887 -15 -23 -17
-24 -26 -9 -5 9 -14 105 -19 213 -12 265 -32 348 -95 405 -47 42 -67 88 -54
122 11 30 31 41 87 51 60 10 119 52 189 137 62 76 133 131 188 147 58 17 114
13 137 -10z m139 -672 c0 -7 -36 -86 -79 -176 -44 -90 -87 -194 -96 -232 -18
-71 -14 -119 8 -119 23 0 84 72 147 175 109 176 198 261 235 224 13 -12 13
-18 0 -43 -8 -15 -32 -49 -53 -75 -94 -112 -217 -322 -386 -657 -135 -268
-172 -334 -188 -334 -28 0 12 337 68 570 72 301 167 525 264 622 58 57 80 70
80 45z" />
        <path d="M4182 11750 c-102 -21 -211 -112 -258 -214 -78 -170 -70 -413 18
-577 37 -71 119 -148 198 -187 106 -52 221 -31 302 55 88 93 158 279 166 442
6 120 -7 189 -50 274 -76 152 -231 237 -376 207z m57 -89 c28 -30 64 -123 80
-211 31 -165 40 -419 17 -474 -19 -46 -82 -70 -166 -64 -85 6 -134 42 -180
132 -35 68 -35 70 -34 195 0 128 14 195 35 174 6 -6 14 -71 19 -144 12 -167
17 -199 35 -199 18 0 94 86 145 163 74 114 77 177 7 148 -69 -28 -77 -27 -77
12 0 19 9 64 20 99 26 84 26 118 0 118 -12 0 -39 -9 -61 -21 -23 -11 -44 -18
-47 -15 -8 8 55 74 93 97 44 28 82 24 114 -10z m233 -231 c10 -87 0 -272 -17
-288 -14 -15 -20 22 -23 150 -7 243 17 326 40 138z" />
        <path d="M3894 4919 c-12 -20 -9 -278 4 -291 20 -20 27 20 27 154 0 82 -4 131
-11 138 -9 9 -14 9 -20 -1z" />
        <path d="M4227 4769 c-62 -36 -63 -262 -1 -286 12 -4 25 2 40 20 51 60 59 204
14 252 -26 28 -28 29 -53 14z" />
        <path d="M3497 4223 c-11 -10 -8 -146 3 -163 8 -13 12 -13 27 3 22 22 24 88 4
135 -13 32 -22 38 -34 25z" />
        <path d="M5305 12685 c-151 -28 -255 -75 -255 -114 0 -44 103 -92 274 -126
143 -28 187 -42 250 -79 59 -34 70 -70 33 -102 -38 -33 -110 -44 -282 -44
-147 0 -155 -1 -155 -20 0 -10 12 -110 27 -222 25 -180 28 -235 28 -478 0
-180 -5 -306 -13 -365 -70 -464 -232 -854 -447 -1071 -40 -41 -118 -103 -185
-146 -176 -114 -194 -148 -54 -99 214 74 409 183 490 274 21 24 51 67 66 95
37 70 86 101 180 113 119 17 142 43 153 179 4 47 14 98 22 113 28 55 97 83
296 118 138 24 214 49 256 85 64 54 108 230 118 475 23 575 -197 1257 -448
1394 -49 26 -64 29 -164 32 -67 1 -141 -3 -190 -12z m629 -605 c19 -48 20 -80
4 -115 -13 -28 -33 -33 -42 -9 -8 21 -8 149 1 157 13 14 21 6 37 -33z m-220
-107 c36 -20 -6 -26 -177 -26 -180 1 -233 13 -136 31 67 13 287 10 313 -5z
m-10 -144 c32 -9 37 -13 23 -20 -22 -13 -307 -7 -308 6 0 6 10 13 23 17 39 10
220 9 262 -3z m323 -414 c-7 -251 -42 -472 -82 -505 -10 -9 -14 -3 -20 30 -15
87 44 647 76 726 l12 29 9 -40 c6 -22 7 -128 5 -240z" />
        <path d="M2576 1932 c-23 -38 -17 -212 9 -212 19 0 38 90 30 144 -8 50 -28 86
-39 68z" />
        <path d="M2264 1063 c-7 -81 0 -310 10 -320 11 -11 15 2 27 77 11 72 7 246 -7
298 -12 42 -22 22 -30 -55z" />
    </g>
</svg>